<svg width="57" height="27" viewBox="0 0 57 27" fill="none" xmlns="http://www.w3.org/2000/svg">
<path d="M14.8259 26C13.4579 26 12.2699 25.712 11.2619 25.136C10.2779 24.536 9.50992 23.732 8.95792 22.724C8.42992 21.692 8.16592 20.54 8.16592 19.268V3.86H0.497922V0.799998H19.2899V3.86H11.6219V19.7C11.6219 20.636 11.9099 21.416 12.4859 22.04C13.0859 22.64 13.8779 22.94 14.8619 22.94H16.5179V26H14.8259ZM39.7509 26.432C38.4549 26.432 37.2909 26.132 36.2589 25.532C35.2269 24.932 34.4109 24.116 33.8109 23.084C33.2349 22.028 32.9469 20.804 32.9469 19.412V6.884C32.9469 6.236 32.7909 5.648 32.4789 5.12C32.1669 4.592 31.7469 4.172 31.2189 3.86C30.6909 3.548 30.1149 3.392 29.4909 3.392C28.8669 3.392 28.2909 3.548 27.7629 3.86C27.2589 4.172 26.8509 4.592 26.5389 5.12C26.2509 5.648 26.1069 6.236 26.1069 6.884V26H22.6509V7.352C22.6509 6.032 22.9389 4.844 23.5149 3.788C24.0909 2.732 24.8949 1.904 25.9269 1.304C26.9589 0.679999 28.1469 0.368 29.4909 0.368C30.8589 0.368 32.0589 0.679999 33.0909 1.304C34.1229 1.904 34.9269 2.732 35.5029 3.788C36.0789 4.844 36.3669 6.032 36.3669 7.352V19.88C36.3669 20.552 36.5229 21.152 36.8349 21.68C37.1469 22.184 37.5549 22.592 38.0589 22.904C38.5869 23.216 39.1509 23.372 39.7509 23.372C40.3509 23.372 40.9029 23.216 41.4069 22.904C41.9109 22.592 42.3069 22.184 42.5949 21.68C42.9069 21.152 43.0629 20.552 43.0629 19.88V7.352C43.0629 6.032 43.3509 4.844 43.9269 3.788C44.5269 2.732 45.3429 1.904 46.3749 1.304C47.4069 0.679999 48.6069 0.368 49.9749 0.368C51.3189 0.368 52.5069 0.679999 53.5389 1.304C54.5709 1.904 55.3749 2.732 55.9509 3.788C56.5269 4.844 56.8149 6.032 56.8149 7.352V26H53.3589V6.884C53.3589 6.236 53.2029 5.648 52.8909 5.12C52.6029 4.592 52.1949 4.172 51.6669 3.86C51.1629 3.548 50.5989 3.392 49.9749 3.392C49.3269 3.392 48.7389 3.548 48.2109 3.86C47.7069 4.172 47.2989 4.592 46.9869 5.12C46.6749 5.648 46.5189 6.236 46.5189 6.884V19.412C46.5189 20.804 46.2189 22.028 45.6189 23.084C45.0429 24.116 44.2389 24.932 43.2069 25.532C42.1989 26.132 41.0469 26.432 39.7509 26.432Z" fill="black"/>
</svg>
