<svg width="24" height="24" viewBox="0 0 24 24" fill="none" xmlns="http://www.w3.org/2000/svg">
<path d="M9.52497 13.765C9.43082 13.8591 9.37793 13.9868 9.37793 14.12C9.37793 14.2531 9.43082 14.3808 9.52497 14.475C9.61913 14.5691 9.74682 14.622 9.87998 14.622C10.0131 14.622 10.1408 14.5691 10.235 14.475C10.825 13.885 11.41 13.295 12 12.715L13.765 14.475C13.8116 14.5216 13.8669 14.5586 13.9279 14.5838C13.9888 14.609 14.054 14.622 14.12 14.622C14.1859 14.622 14.2512 14.609 14.3121 14.5838C14.373 14.5586 14.4284 14.5216 14.475 14.475C14.5216 14.4284 14.5586 14.373 14.5838 14.3121C14.609 14.2512 14.622 14.1859 14.622 14.12C14.622 14.054 14.609 13.9888 14.5838 13.9279C14.5586 13.8669 14.5216 13.8116 14.475 13.765C13.885 13.185 13.295 12.59 12.715 12C13.125 11.58 13.535 11.175 13.945 10.765C14.125 10.585 14.295 10.405 14.475 10.235C14.5691 10.1408 14.622 10.0131 14.622 9.87998C14.622 9.74682 14.5691 9.61913 14.475 9.52497C14.3808 9.43082 14.2531 9.37793 14.12 9.37793C13.9868 9.37793 13.8591 9.43082 13.765 9.52497L12 11.293L10.235 9.52497C10.1408 9.43082 10.0131 9.37793 9.87998 9.37793C9.74682 9.37793 9.61913 9.43082 9.52497 9.52497C9.43082 9.61913 9.37793 9.74682 9.37793 9.87998C9.37793 10.0131 9.43082 10.1408 9.52497 10.235L11.293 12L9.52497 13.765Z" fill="#4BC8D0"/>
<path d="M11.9999 21.9329C10.0354 21.9327 8.11501 21.35 6.48167 20.2584C4.84833 19.1668 3.57535 17.6154 2.82369 15.8004C2.07204 13.9854 1.87548 11.9882 2.25886 10.0615C2.64224 8.13471 3.58834 6.36491 4.97754 4.97585C6.36673 3.5868 8.13663 2.64087 10.0634 2.25769C11.9902 1.8745 13.9873 2.07126 15.8023 2.8231C17.6173 3.57493 19.1685 4.84807 20.2599 6.48152C21.3513 8.11498 21.9339 10.0354 21.9339 11.9999C21.9307 14.6335 20.883 17.1583 19.0207 19.0204C17.1584 20.8826 14.6335 21.93 11.9999 21.9329ZM11.9999 3.0669C10.2331 3.0671 8.50613 3.59118 7.03724 4.57287C5.56835 5.55456 4.42354 6.94977 3.74757 8.58208C3.07161 10.2144 2.89485 12.0105 3.23964 13.7433C3.58444 15.476 4.4353 17.0676 5.68464 18.3168C6.93399 19.566 8.5257 20.4167 10.2585 20.7613C11.9913 21.1059 13.7874 20.929 15.4196 20.2528C17.0519 19.5767 18.4469 18.4317 19.4285 16.9627C20.41 15.4937 20.9339 13.7666 20.9339 11.9999C20.931 9.63144 19.9887 7.36084 18.3139 5.68618C16.639 4.01152 14.3683 3.06955 11.9999 3.0669Z" fill="#4BC8D0"/>
</svg>
